<?xml version="1.0" encoding="UTF-8" standalone="no"?>
<svg
   xmlns:dc="http://purl.org/dc/elements/1.1/"
   xmlns:cc="http://creativecommons.org/ns#"
   xmlns:rdf="http://www.w3.org/1999/02/22-rdf-syntax-ns#"
   xmlns:svg="http://www.w3.org/2000/svg"
   xmlns="http://www.w3.org/2000/svg"
   xmlns:sodipodi="http://sodipodi.sourceforge.net/DTD/sodipodi-0.dtd"
   xmlns:inkscape="http://www.inkscape.org/namespaces/inkscape"
   inkscape:version="1.0 (4035a4fb49, 2020-05-01)"
   height="240.01183"
   width="276.01358"
   sodipodi:docname="ghent-university-seeklogo.com.svg"
   xml:space="preserve"
   viewBox="0 0 276.01358 240.01183"
   y="0px"
   x="0px"
   id="layer"
   version="1.1"><metadata
   id="metadata13"><rdf:RDF><cc:Work
       rdf:about=""><dc:format>image/svg+xml</dc:format><dc:type
         rdf:resource="http://purl.org/dc/dcmitype/StillImage" /><dc:title></dc:title></cc:Work></rdf:RDF></metadata><defs
   id="defs11" /><sodipodi:namedview
   inkscape:current-layer="layer"
   inkscape:window-maximized="1"
   inkscape:window-y="27"
   inkscape:window-x="0"
   inkscape:cy="330.03529"
   inkscape:cx="266.91357"
   inkscape:zoom="0.92834878"
   fit-margin-bottom="0"
   fit-margin-right="0"
   fit-margin-left="0"
   fit-margin-top="0"
   showgrid="false"
   id="namedview9"
   inkscape:window-height="1016"
   inkscape:window-width="1920"
   inkscape:pageshadow="2"
   inkscape:pageopacity="0"
   guidetolerance="10"
   gridtolerance="10"
   objecttolerance="10"
   borderopacity="1"
   bordercolor="#666666"
   pagecolor="#ffffff" />
<style
   id="style2"
   type="text/css">
	.st0{fill:#1E64C8;}
</style>
<g
   transform="matrix(0.48002364,0,0,0.48002364,-15.792778,-34.561702)"
   id="g6">
	<path
   id="path4"
   d="m 140.5,243.4 h 13 v -84.8 h -13 z m -26.1,0 h 13 v -84.8 h -13 z m -26.2,0 h 13 v -84.8 h -13 z m -26.1,0 h 13 v -84.8 h -13 z m 104.5,0 h 13 v -84.8 h -13 z m 26.1,0 h 13 v -84.8 h -13 z m 26.1,0 h 13 v -84.8 h -13 z m -170,26.1 H 245.2 V 256.4 H 48.8 Z m 183,-123.9 H 62.1 L 49,132.6 h 195.8 z m -196.1,150 h 222.5 v -13 H 35.7 Z M 258.2,111.4 147,72 35.7,111.4 v 13.8 L 147,85.9 258.3,125.3 V 111.4 Z M 143.8,398.2 h -28.1 v 41.9 h -13.1 v -92.3 h 13.1 v 39.3 h 28.1 v -39.3 h 13 v 92.3 h -13 z m 286,89.3 c 5.8,0 11.2,1.9 13.7,3.8 v -11.8 c -2.5,-1.5 -8.6,-3.2 -14.8,-3.2 -17.3,0 -26.9,9.8 -26.9,24.1 0,11.9 5,17.7 13.2,24.6 l 7.4,6.4 c 6.1,5.1 9.9,9.1 9.9,16.8 0,8.9 -5.9,12.5 -14.8,12.5 -6.8,0 -12.4,-1.9 -15.6,-4.1 v 12 c 2.8,1.6 8.8,3.3 16.7,3.3 17.3,0 26.8,-9.8 26.9,-24.2 0,-11.9 -5.1,-17.6 -13.2,-24.6 l -7.4,-6.4 c -6.1,-5.3 -10,-9 -9.9,-16.7 0,-9 5.8,-12.5 14.8,-12.5 m -80.2,1.6 v 32.5 h 6.9 c 10.2,0 17.1,-2.2 17.1,-16.3 0,-14.1 -6.8,-16.2 -17.1,-16.2 z M 336.5,478 h 21.3 c 17.1,0 29.3,6.4 29.3,27.3 0,14.6 -7.1,21.7 -16.1,25 l 19.6,40 h -14.9 l -17.3,-37.6 h -8.8 v 37.6 H 336.5 V 478 M 35.7,542.5 V 478 h 13 v 65.1 c 0,13.6 4.7,17.6 14.2,17.6 9.5,0 14.2,-4 14.2,-17.6 V 478 h 13.1 v 64.5 c 0,21 -8.8,29.5 -27.3,29.5 -18.7,0 -27.2,-8.2 -27.2,-29.5 M 107.1,478 h 15.1 l 29.1,73.6 c -1,-7.5 -1.8,-16.3 -1.8,-24.6 V 478 H 162 v 92.3 h -15.1 l -29.4,-73.8 c 1.1,7.5 2.1,16.5 2.1,24.8 v 49 h -12.5 z m 73.3,92.3 h 13 V 478 h -13 z M 205.6,478 h 13.7 l 11.6,48 c 1.7,7.2 3.8,19.5 5.1,29.1 1.3,-9.7 3.4,-21.9 5.4,-29.1 l 11.5,-48 h 13.2 l -23.4,92.3 H 229 Z m 72.7,0 h 43.1 v 11.1 h -30.1 v 28.3 h 24.3 v 10.9 h -24.3 v 31 h 30.1 v 11 H 278.3 Z M 461,570.3 h 13 V 478 H 461 Z M 32.9,394 c 0,-36.4 9.7,-47.9 33.7,-47.9 6.8,0 14.1,1.8 17.2,3.7 v 12.1 c -3.4,-2 -9.9,-4.1 -16.2,-4.1 -15.3,0 -21.1,5.7 -21.1,36.2 0,30.2 4.1,36.5 17.5,36.5 4.1,0 7.5,-0.6 10.1,-1.3 V 398.4 H 60.3 v -11 H 87 v 49.8 c -2.7,1.7 -13.5,4.7 -23,4.7 C 39,441.8 32.9,428.7 32.9,394 m 142.4,-46.2 h 43.2 v 11.1 h -30.1 v 28.2 h 24.3 V 398 h -24.3 v 31 h 30.1 v 11.1 h -43.2 z m 58.2,0 h 15.1 l 29.1,73.6 c -1,-7.5 -1.8,-16.3 -1.8,-24.6 v -49 h 12.5 v 92.3 h -15.1 l -29.4,-73.8 c 1.1,7.6 2.1,16.5 2.1,24.9 v 49 h -12.5 z m 66.8,0 h 53 v 11.1 h -20 v 81.2 H 320.2 V 358.9 H 300.3 Z M 569.8,532 544.5,478 h 14.4 l 10.9,24.9 c 2.6,6 5,12.4 6.5,18 1.7,-5.7 4.2,-12.1 6.8,-18 L 594,478 h 13.9 l -25.1,54 v 38.3 h -13.1 z m -83.3,-54 h 53 v 11.1 h -20 v 81.2 h -13 v -81.2 h -19.9 z"
   class="st0" />
</g>
</svg>
