<?xml version="1.0" encoding="UTF-8" standalone="no"?>
<svg
   xmlns:dc="http://purl.org/dc/elements/1.1/"
   xmlns:cc="http://creativecommons.org/ns#"
   xmlns:rdf="http://www.w3.org/1999/02/22-rdf-syntax-ns#"
   xmlns:svg="http://www.w3.org/2000/svg"
   xmlns="http://www.w3.org/2000/svg"
   xmlns:sodipodi="http://sodipodi.sourceforge.net/DTD/sodipodi-0.dtd"
   xmlns:inkscape="http://www.inkscape.org/namespaces/inkscape"
   sodipodi:docname="electrode_type_resolution.svg"
   inkscape:version="1.0 (4035a4fb49, 2020-05-01)"
   id="svg1617"
   version="1.1"
   viewBox="0 0 85.196136 66.606377"
   height="66.606377mm"
   width="85.196136mm">
  <defs
     id="defs1611">
    <clipPath
       clipPathUnits="userSpaceOnUse"
       id="clipPath396">
      <path
         d="M 58.223999,565.35602 H 527.32001 v 169.949 H 58.223999 Z"
         id="path394" />
    </clipPath>
    <clipPath
       clipPathUnits="userSpaceOnUse"
       id="clipPath416">
      <path
         d="M 58.223999,565.35602 H 527.32001 v 169.949 H 58.223999 Z"
         id="path414" />
    </clipPath>
    <clipPath
       clipPathUnits="userSpaceOnUse"
       id="clipPath436">
      <path
         d="M 58.223999,565.35602 H 527.32001 v 169.949 H 58.223999 Z"
         id="path434" />
    </clipPath>
    <clipPath
       clipPathUnits="userSpaceOnUse"
       id="clipPath452">
      <path
         d="M 58.223999,565.35602 H 527.32001 v 169.949 H 58.223999 Z"
         id="path450" />
    </clipPath>
    <clipPath
       clipPathUnits="userSpaceOnUse"
       id="clipPath532">
      <path
         d="M 58.223999,565.35602 H 527.32001 v 169.949 H 58.223999 Z"
         id="path530" />
    </clipPath>
    <clipPath
       clipPathUnits="userSpaceOnUse"
       id="clipPath556">
      <path
         d="M 58.223999,565.35602 H 527.32001 v 169.949 H 58.223999 Z"
         id="path554" />
    </clipPath>
    <clipPath
       clipPathUnits="userSpaceOnUse"
       id="clipPath810">
      <path
         d="M 58.223999,565.35602 H 527.32001 v 169.949 H 58.223999 Z"
         id="path808" />
    </clipPath>
  </defs>
  <sodipodi:namedview
     inkscape:window-maximized="1"
     inkscape:window-y="27"
     inkscape:window-x="0"
     inkscape:window-height="1016"
     inkscape:window-width="1920"
     fit-margin-bottom="0"
     fit-margin-right="0"
     fit-margin-left="0"
     fit-margin-top="0"
     showgrid="false"
     inkscape:document-rotation="0"
     inkscape:current-layer="layer1"
     inkscape:document-units="mm"
     inkscape:cy="623.01318"
     inkscape:cx="746.71486"
     inkscape:zoom="0.35"
     inkscape:pageshadow="2"
     inkscape:pageopacity="0.0"
     borderopacity="1.0"
     bordercolor="#666666"
     pagecolor="#ffffff"
     id="base" />
  <metadata
     id="metadata1614">
    <rdf:RDF>
      <cc:Work
         rdf:about="">
        <dc:format>image/svg+xml</dc:format>
        <dc:type
           rdf:resource="http://purl.org/dc/dcmitype/StillImage" />
        <dc:title></dc:title>
      </cc:Work>
    </rdf:RDF>
  </metadata>
  <g
     transform="translate(91.734974,16.672237)"
     id="layer1"
     inkscape:groupmode="layer"
     inkscape:label="Layer 1">
    <g
       inkscape:export-ydpi="300"
       inkscape:export-xdpi="300"
       id="g1228"
       transform="translate(-88.029723,-27.74316)">
      <g
         id="g390"
         transform="matrix(0.41404403,0,0,-0.41404403,-29.105494,314.37465)">
        <g
           clip-path="url(#clipPath396)"
           id="g392">
          <g
             transform="translate(213.99159,651.17499)"
             id="g398">
            <path
               id="path400"
               style="fill:#d68a5b;fill-opacity:1;fill-rule:nonzero;stroke:none"
               d="m 0,0 h -13.685 v 4.6599998 c 0,2.2690001 -1.824,4.1110001 -4.083999,4.1409998 H -66.575996 V 19.658001 c 0,2.153 1.730995,3.903 3.877994,3.931999 H 0.054 C 2.201,23.561 3.931,21.811001 3.931,19.658001 V 3.9319999 C 3.931,1.761 2.171,0 0,0" />
          </g>
        </g>
      </g>
      <text
         id="text408"
         style="font-variant:normal;font-weight:normal;font-stretch:normal;font-size:2.69129px;font-family:'ACOLK O +Helvetica';-inkscape-font-specification:Helvetica;writing-mode:lr-tb;fill:#111212;fill-opacity:1;fill-rule:nonzero;stroke:none;stroke-width:0.414043"
         x="29.030056"
         y="73.341438"><tspan
           id="tspan402"
           y="73.341438"
           x="29.030056"
           style="stroke-width:0.414043">1</tspan><tspan
           id="tspan404"
           sodipodi:role="line"
           y="73.540596"
           x="39.224648 40.721001"
           style="stroke-width:0.414043">10</tspan><tspan
           id="tspan406"
           sodipodi:role="line"
           y="73.341438"
           x="49.419239 50.915596 52.411949 59.239742 60.736099 61.484272 62.980629 64.476982"
           style="stroke-width:0.414043">1001,000</tspan></text>
      <g
         id="g410"
         transform="matrix(0.41404403,0,0,-0.41404403,-29.105494,314.37465)">
        <g
           clip-path="url(#clipPath416)"
           id="g412">
          <g
             transform="translate(196.25259,635.13202)"
             id="g418">
            <path
               id="path420"
               style="fill:#e1f7d0;fill-opacity:1;fill-rule:nonzero;stroke:none"
               d="m 0,0 h -72.734001 c -2.225998,0.045 -4.020996,1.847 -4.055,4.0760002 V 20.768 c 0.035,2.239 1.845001,4.045999 4.084999,4.076 h 23.867 v -4.869 c 0,-2.170999 1.760002,-3.932001 3.932003,-3.932001 H 4.0539999 V 4.1409998 C 4.0539999,1.882 2.2460001,0.046 0,0" />
          </g>
          <g
             transform="translate(200.30659,651.17499)"
             id="g422">
            <path
               id="path424"
               style="fill:#d4d59f;fill-opacity:1;fill-rule:nonzero;stroke:none"
               d="m 0,0 h -48.958 c -2.173001,0 -3.932999,1.761 -3.932999,3.9319999 V 8.8009996 H -4.0840001 C -1.824,8.7709999 0,6.9289999 0,4.6599998 V 0" />
          </g>
        </g>
      </g>
      <text
         id="text428"
         style="font-variant:normal;font-weight:normal;font-stretch:normal;font-size:2.69129px;font-family:'ACOLK O +Helvetica';-inkscape-font-specification:Helvetica;writing-mode:lr-tb;fill:#111212;fill-opacity:1;fill-rule:nonzero;stroke:none;stroke-width:0.414043"
         x="69.431023"
         y="73.440781"><tspan
           id="tspan426"
           sodipodi:role="line"
           y="73.440781"
           x="69.431023 70.927376 72.423729 73.171913 74.668266 76.164627"
           style="stroke-width:0.414043">10,000</tspan></text>
      <g
         id="g430"
         transform="matrix(0.41404403,0,0,-0.41404403,-29.105494,314.37465)">
        <g
           clip-path="url(#clipPath436)"
           id="g432">
          <g
             transform="translate(188.4436,604.15698)"
             id="g438">
            <path
               id="path440"
               style="fill:#ffeee4;fill-opacity:1;fill-rule:nonzero;stroke:none"
               d="M 0,0 H -63.282001 C -65.18,0 -66.723999,1.523 -66.755997,3.415 V 17.43 c 0.032,1.892 1.575997,3.414999 3.473996,3.414999 H 0 c 1.919,0 3.474,-1.554998 3.474,-3.473999 V 3.474 C 3.474,1.5549999 1.919,0 0,0" />
          </g>
        </g>
      </g>
      <text
         id="text444"
         style="font-variant:normal;font-weight:normal;font-stretch:normal;font-size:2.69129px;font-family:'ACOLK O +Helvetica';-inkscape-font-specification:Helvetica;writing-mode:lr-tb;fill:#111212;fill-opacity:1;fill-rule:nonzero;stroke:none;stroke-width:0.414043"
         x="37.119434"
         y="77.117493"><tspan
           id="tspan442"
           sodipodi:role="line"
           y="77.117493"
           x="37.119434 38.763809 39.660011 41.156361 42.652714 44.149071 45.645424 47.141785 48.487427 49.833069 50.581245 51.477448 53.420555 54.766197"
           style="stroke-width:0.414043">Frequency (Hz)</tspan></text>
      <g
         id="g446"
         transform="matrix(0.41404403,0,0,-0.41404403,-29.105494,314.37465)">
        <g
           clip-path="url(#clipPath452)"
           id="g448">
          <g
             transform="translate(100.061,616.125)"
             id="g454">
            <path
               id="path456"
               style="fill:#be271b;fill-opacity:1;fill-rule:nonzero;stroke:none"
               d="M 0,0 H 167.047 V 0.5 H 0" />
          </g>
          <g
             transform="translate(97.495598,673.41968)"
             id="g458">
            <path
               id="path460"
               style="fill:#111212;fill-opacity:1;fill-rule:nonzero;stroke:none"
               d="M 0,0 H 2.5650001 V 0.25 H 0" />
          </g>
          <g
             transform="translate(97.495598,652.58032)"
             id="g462">
            <path
               id="path464"
               style="fill:#111212;fill-opacity:1;fill-rule:nonzero;stroke:none"
               d="M 0,0 H 2.5650001 V 0.25 H 0" />
          </g>
          <g
             transform="translate(97.495598,610.90002)"
             id="g466">
            <path
               id="path468"
               style="fill:#111212;fill-opacity:1;fill-rule:nonzero;stroke:none"
               d="M 0,0 H 2.5650001 V 0.25 H 0" />
          </g>
          <g
             transform="translate(142.3423,588.46692)"
             id="g470">
            <path
               id="path472"
               style="fill:#111212;fill-opacity:1;fill-rule:nonzero;stroke:none"
               d="M 0,0 V 2.299 H -0.25 V 0" />
          </g>
          <g
             transform="translate(168.76961,588.46692)"
             id="g474">
            <path
               id="path476"
               style="fill:#111212;fill-opacity:1;fill-rule:nonzero;stroke:none"
               d="M 0,0 V 2.299 H -0.25 V 0" />
          </g>
          <g
             transform="translate(195.19659,588.46692)"
             id="g478">
            <path
               id="path480"
               style="fill:#111212;fill-opacity:1;fill-rule:nonzero;stroke:none"
               d="M 0,0 V 2.299 H -0.25 V 0" />
          </g>
          <g
             transform="translate(221.6236,588.46692)"
             id="g482">
            <path
               id="path484"
               style="fill:#111212;fill-opacity:1;fill-rule:nonzero;stroke:none"
               d="M 0,0 V 2.299 H -0.25 V 0" />
          </g>
          <g
             transform="translate(248.0506,588.46692)"
             id="g486">
            <path
               id="path488"
               style="fill:#111212;fill-opacity:1;fill-rule:nonzero;stroke:none"
               d="M 0,0 V 2.299 H -0.25 V 0" />
          </g>
          <g
             transform="translate(251.61861,685.45978)"
             id="g490">
            <path
               id="path492"
               style="fill:#d0b05b;fill-opacity:1;fill-rule:nonzero;stroke:none"
               d="M 0,0 H -24.332001 C -26.478001,0.034 -28.209,1.786 -28.209,3.9400001 V 19.705 c 0,2.153999 1.73,3.906 3.876999,3.94 H 0 c 2.148,-0.034 3.8770001,-1.786001 3.8770001,-3.94 V 3.9400001 C 3.8770001,1.786 2.148,0.034 0,0" />
          </g>
          <g
             transform="translate(99.9617,648.9281)"
             id="g494">
            <path
               id="path496"
               style="fill:#be271b;fill-opacity:1;fill-rule:nonzero;stroke:none"
               d="m 0,0 134.899,-58.391998 0.19901,0.458999 L 0.199,0.459" />
          </g>
          <g
             transform="translate(97.495598,631.74103)"
             id="g498">
            <path
               id="path500"
               style="fill:#111212;fill-opacity:1;fill-rule:nonzero;stroke:none"
               d="M 0,0 H 2.5650001 V 0.25 H 0" />
          </g>
          <path
             id="path502"
             style="fill:#111212;fill-opacity:1;fill-rule:nonzero;stroke:none"
             d="m 103.125,631.61603 h 6 v 0.5 h -6 z m 10.5,0 h 6 v 0.5 h -6 z m 10.5,0 h 6 v 0.5 h -6 z m 10.5,0 h 6 v 0.5 h -6 z m 10.5,0 h 6 v 0.5 h -6 z m 10.5,0 h 6 v 0.5 h -6 z m 10.5,0 h 6 v 0.5 h -6 z m 10.5,0 h 6 v 0.5 h -6 z m 10.5,0 h 6 v 0.5 h -6 z m 10.5,0 h 6 v 0.5 h -6 z m 10.5,0 h 6 v 0.5 h -6 z m 10.5,0 h 6 v 0.5 h -6 z m 10.5,0 h 6 v 0.5 h -6 z m 10.5,0 h 6 v 0.5 h -6 z m 10.5,0 h 6 v 0.5 h -6 z m 10.5,0 h 3.122 v 0.5 h -3.122 z" />
        </g>
      </g>
      <text
         id="text524"
         style="font-variant:normal;font-weight:normal;font-stretch:normal;font-size:2.69129px;font-family:'ACOLK O +Helvetica';-inkscape-font-specification:Helvetica;writing-mode:lr-tb;fill:#111212;fill-opacity:1;fill-rule:nonzero;stroke:none;stroke-width:0.414043"
         x="48.226585"
         y="16.385538"><tspan
           id="tspan504"
           sodipodi:role="line"
           y="16.385538"
           x="48.226585 50.021675 51.518028 53.46114 54.957493 55.853691 56.451157 57.048622 58.544975 60.041328 60.789505 61.537685 63.034042 63.782219 65.27858 66.174774 66.922951 68.419304 69.315506 70.811867 72.308212 73.653854"
           style="stroke-width:0.414043">Powerline Interference</tspan><tspan
           id="tspan506"
           sodipodi:role="line"
           y="19.243685"
           x="48.226585 49.122784 50.619137 52.11549 52.86367 54.360027 55.856384 57.799488 59.145138"
           style="stroke-width:0.414043">(50/60Hz)</tspan><tspan
           id="tspan508"
           sodipodi:role="line"
           y="68.257393"
           x="49.728321 51.224678 51.972851 52.721031 53.469208 54.965565 56.461922 57.059387 58.405025"
           style="stroke-width:0.414043">1/f noise</tspan><tspan
           id="tspan510"
           sodipodi:role="line"
           y="63.289272"
           x="63.978683 65.623055 67.119415 68.615768 69.511963 71.753807 73.250168 73.847633 74.595802 76.092163 77.588524 78.185997 79.531631"
           style="stroke-width:0.414043">Thermal noise</tspan><tspan
           id="tspan512"
           sodipodi:role="line"
           y="51.862072"
           x="64.673035 65.421219 66.917572 68.263206 69.75956 71.105209 71.702675 73.048317"
           style="stroke-width:0.414043">Invasive</tspan><tspan
           id="tspan514"
           sodipodi:role="line"
           y="55.93668"
           x="58.98904 60.932144 62.428501 63.924858 64.82106 65.418518 66.914879 68.260521 69.756874 71.102524 71.699982 73.045624"
           style="stroke-width:0.414043">Non-invasive</tspan><tspan
           id="tspan516"
           sodipodi:role="line"
           y="48.185776"
           x="33.349155 35.144249 37.087353 38.583702"
           style="stroke-width:0.414043">ECoG</tspan><tspan
           id="tspan518"
           sodipodi:role="line"
           y="62.164314"
           x="33.440659 35.235748 37.030838"
           style="stroke-width:0.414043">EEG</tspan><tspan
           id="tspan520"
           sodipodi:role="line"
           y="25.826569"
           x="63.534622 64.228973 65.671501 66.365852 67.208221 68.650757 69.942574 71.385101 71.928741 72.472382 73.914909 74.458549 75.901085"
           style="stroke-width:0.414043">Intracellular</tspan><tspan
           id="tspan522"
           sodipodi:role="line"
           y="28.684713"
           x="68.421997 70.165947"
           style="stroke-width:0.414043">AP</tspan></text>
      <g
         id="g526"
         transform="matrix(0.41404403,0,0,-0.41404403,-29.105494,314.37465)">
        <g
           clip-path="url(#clipPath532)"
           id="g528">
          <g
             transform="translate(97.495598,694.25952)"
             id="g534">
            <path
               id="path536"
               style="fill:#111212;fill-opacity:1;fill-rule:nonzero;stroke:none"
               d="M 0,0 H 2.5650001 V 0.25 H 0" />
          </g>
          <g
             transform="translate(97.495598,715.09943)"
             id="g538">
            <path
               id="path540"
               style="fill:#111212;fill-opacity:1;fill-rule:nonzero;stroke:none"
               d="M 0,0 H 2.5650001 V 0.25 H 0" />
          </g>
          <g
             transform="translate(115.915,588.46692)"
             id="g542">
            <path
               id="path544"
               style="fill:#111212;fill-opacity:1;fill-rule:nonzero;stroke:none"
               d="M 0,0 V 2.299 H -0.25 V 0" />
          </g>
        </g>
      </g>
      <text
         id="text548"
         style="font-variant:normal;font-weight:normal;font-stretch:normal;font-size:2.69129px;font-family:'ACOLK O +Helvetica';-inkscape-font-specification:Helvetica;writing-mode:lr-tb;fill:#111212;fill-opacity:1;fill-rule:nonzero;stroke:none;stroke-width:0.414043"
         x="16.965973"
         y="73.341438"><tspan
           id="tspan546"
           sodipodi:role="line"
           y="73.341438"
           x="16.965973 18.462328 19.210506"
           style="stroke-width:0.414043">0.1</tspan></text>
      <g
         id="g550"
         transform="matrix(0.41404403,0,0,-0.41404403,-29.105494,314.37465)">
        <g
           clip-path="url(#clipPath556)"
           id="g552">
          <g
             transform="translate(182.09061,727.36987)"
             id="g558">
            <path
               id="path560"
               style="fill:#be271b;fill-opacity:1;fill-rule:nonzero;stroke:none"
               d="M 0,0 V -136.604 H 0.5 V 0" />
          </g>
        </g>
      </g>
      <text
         id="text564"
         style="font-variant:normal;font-weight:normal;font-stretch:normal;font-size:2.69129px;font-family:'ACOLK O +Helvetica';-inkscape-font-specification:Helvetica;writing-mode:lr-tb;fill:#111212;fill-opacity:1;fill-rule:nonzero;stroke:none;stroke-width:0.414043"
         x="43.921352"
         y="40.698341"><tspan
           id="tspan562"
           sodipodi:role="line"
           y="40.698341"
           x="43.921352 45.417709 47.062088"
           style="stroke-width:0.414043">LFP</tspan></text>
      <text
         id="text764"
         style="font-variant:normal;font-weight:normal;font-stretch:normal;font-size:2.69129px;font-family:'ACOLK O +Helvetica';-inkscape-font-specification:Helvetica;writing-mode:lr-tb;fill:#111212;fill-opacity:1;fill-rule:nonzero;stroke:none;stroke-width:0.414043"
         transform="rotate(-90)"
         x="-45.859692"
         y="-1.6605017"><tspan
           id="tspan762"
           sodipodi:role="line"
           y="-1.6605017"
           x="-45.859692 -44.064606 -41.822762 -40.326408 -39.728939 -39.131477 -38.383297 -36.88694 -35.390587"
           style="stroke-width:0.414043">Amplitude</tspan></text>
      <text
         id="text774"
         style="font-variant:normal;font-weight:normal;font-stretch:normal;font-size:2.69129px;font-family:'ACOLK O +Helvetica';-inkscape-font-specification:Helvetica;writing-mode:lr-tb;fill:#111212;fill-opacity:1;fill-rule:nonzero;stroke:none;stroke-width:0.414043"
         x="0.49397615"
         y="19.764227"><tspan
           id="tspan766"
           sodipodi:role="line"
           y="19.764227"
           x="0.49397615 1.9903315 3.4866862 4.9830418 5.7312193 7.9730606"
           style="stroke-width:0.414043">100 mV</tspan><tspan
           id="tspan768"
           sodipodi:role="line"
           y="28.007637"
           x="1.9903315 3.4866862 4.9830418 5.7312193 7.9730606"
           style="stroke-width:0.414043">10 mV</tspan><tspan
           id="tspan770"
           sodipodi:role="line"
           y="36.06535"
           x="3.4866862 4.9830418 5.7312193 7.9730606"
           style="stroke-width:0.414043">1 mV</tspan><tspan
           id="tspan772"
           sodipodi:role="line"
           y="44.954666"
           x="1.0941331 2.590488 4.086843 5.583199"
           style="stroke-width:0.414043">100</tspan></text>
      <text
         id="text778"
         style="font-variant:normal;font-weight:normal;font-stretch:normal;font-size:3.10533px;font-family:STIXGeneral;-inkscape-font-specification:STIXGeneral-Regular2;writing-mode:lr-tb;fill:#111212;fill-opacity:1;fill-rule:nonzero;stroke:none;stroke-width:0.414043"
         x="6.3342743"
         y="44.956398"><tspan
           id="tspan776"
           y="44.956398"
           x="6.3342743"
           style="stroke-width:0.414043">μ</tspan></text>
      <text
         id="text784"
         style="font-variant:normal;font-weight:normal;font-stretch:normal;font-size:2.69129px;font-family:'ACOLK O +Helvetica';-inkscape-font-specification:Helvetica;writing-mode:lr-tb;fill:#111212;fill-opacity:1;fill-rule:nonzero;stroke:none;stroke-width:0.414043"
         x="7.9738898"
         y="44.956398"><tspan
           id="tspan780"
           y="44.956398"
           x="7.9738898"
           style="stroke-width:0.414043">V</tspan><tspan
           id="tspan782"
           sodipodi:role="line"
           y="53.412422"
           x="2.5940082 4.0903635 5.586719"
           style="stroke-width:0.414043">10</tspan></text>
      <text
         id="text788"
         style="font-variant:normal;font-weight:normal;font-stretch:normal;font-size:3.10533px;font-family:STIXGeneral;-inkscape-font-specification:STIXGeneral-Regular2;writing-mode:lr-tb;fill:#111212;fill-opacity:1;fill-rule:nonzero;stroke:none;stroke-width:0.414043"
         x="6.3342743"
         y="53.410969"><tspan
           id="tspan786"
           y="53.410969"
           x="6.3342743"
           style="stroke-width:0.414043">μ</tspan></text>
      <text
         id="text794"
         style="font-variant:normal;font-weight:normal;font-stretch:normal;font-size:2.69129px;font-family:'ACOLK O +Helvetica';-inkscape-font-specification:Helvetica;writing-mode:lr-tb;fill:#111212;fill-opacity:1;fill-rule:nonzero;stroke:none;stroke-width:0.414043"
         x="7.9738898"
         y="53.410969"><tspan
           id="tspan790"
           y="53.410969"
           x="7.9738898"
           style="stroke-width:0.414043">V</tspan><tspan
           id="tspan792"
           sodipodi:role="line"
           y="61.99617"
           x="4.0903635 5.586719"
           style="stroke-width:0.414043">1</tspan></text>
      <text
         id="text798"
         style="font-variant:normal;font-weight:normal;font-stretch:normal;font-size:3.10533px;font-family:STIXGeneral;-inkscape-font-specification:STIXGeneral-Regular2;writing-mode:lr-tb;fill:#111212;fill-opacity:1;fill-rule:nonzero;stroke:none;stroke-width:0.414043"
         x="6.3342743"
         y="61.996189"><tspan
           id="tspan796"
           y="61.996189"
           x="6.3342743"
           style="stroke-width:0.414043">μ</tspan></text>
      <text
         id="text802"
         style="font-variant:normal;font-weight:normal;font-stretch:normal;font-size:2.69129px;font-family:'ACOLK O +Helvetica';-inkscape-font-specification:Helvetica;writing-mode:lr-tb;fill:#111212;fill-opacity:1;fill-rule:nonzero;stroke:none;stroke-width:0.414043"
         x="7.9738898"
         y="61.996189"><tspan
           id="tspan800"
           y="61.996189"
           x="7.9738898"
           style="stroke-width:0.414043">V</tspan></text>
      <g
         id="g804"
         transform="matrix(0.41404403,0,0,-0.41404403,-29.105494,314.37465)">
        <g
           clip-path="url(#clipPath810)"
           id="g806">
          <g
             transform="translate(264.69861,590.89099)"
             id="g812">
            <path
               id="path814"
               style="fill:#111212;fill-opacity:1;fill-rule:nonzero;stroke:none"
               d="m 0,0 h -164.513 v 139.235 h -0.25 V -0.25 H 0 Z" />
          </g>
          <g
             transform="translate(267.11261,590.76599)"
             id="g816">
            <path
               id="path818"
               style="fill:#111212;fill-opacity:1;fill-rule:nonzero;stroke:none"
               d="M 0,0 C -1.136,0.422 -2.5450001,1.141 -3.4189999,1.9019999 L -2.7309999,0 l -0.688,-1.901 C -2.5450001,-1.14 -1.136,-0.421 0,0" />
          </g>
          <g
             transform="translate(100.061,732.53979)"
             id="g820">
            <path
               id="path822"
               style="fill:#111212;fill-opacity:1;fill-rule:nonzero;stroke:none"
               d="M 0,0 C 0.421,-1.136 1.141,-2.5450001 1.9019999,-3.4189999 L 0,-2.7309999 l -1.9019999,-0.688 C -1.14,-2.5450001 -0.421,-1.136 0,0" />
          </g>
          <g
             transform="translate(256.33661,639.3548)"
             id="g824">
            <path
               id="path826"
               style="fill:#111212;fill-opacity:1;fill-rule:nonzero;stroke:none"
               d="M 0,0 V -15.685 H 0.5 V 0" />
          </g>
          <g
             transform="translate(256.58661,641.7688)"
             id="g828">
            <path
               id="path830"
               style="fill:#111212;fill-opacity:1;fill-rule:nonzero;stroke:none"
               d="M 0,0 C -0.421,-1.136 -1.141,-2.5450001 -1.9019999,-3.4189999 L 0,-2.73 1.9019999,-3.4189999 C 1.14,-2.5450001 0.421,-1.136 0,0" />
          </g>
          <g
             transform="translate(256.58661,621.25598)"
             id="g832">
            <path
               id="path834"
               style="fill:#111212;fill-opacity:1;fill-rule:nonzero;stroke:none"
               d="M 0,0 C -0.421,1.136 -1.141,2.5450001 -1.9019999,3.4189999 L 0,2.73 1.9019999,3.4189999 C 1.14,2.5450001 0.421,1.136 0,0" />
          </g>
        </g>
      </g>
    </g>
  </g>
</svg>
